:FULLY-SPECIFIED
:FORCE-ALL-JOINTS-BE-3DOF
:DEGREES
306
root 9.22193 15.3878 -23.8285 15.2445 63.1641 20.0938
lfemur -15.2014 16.8717 -18.5979
ltibia 52.338 -0 0
lfoot -19.8397 -28.497 -0.939669
ltoes 62.6691 -0 0
rfemur -50.9455 -13.6661 28.9021
rtibia 54.7949 -0 0
rfoot 2.1833 -2.67887 0.428498
rtoes 14.9661 -0 0
lowerback 9.18083 -3.0367 -7.48438
upperback 4.94958 -4.47716 -4.42718
thorax 0.276865 -2.24916 -0.0976869
lowerneck -3.70955 -11.7857 -2.6327
upperneck -1.65659 -15.6436 10.0062
head 1.24251 -7.78248 3.19266
lclavicle -6.6351e-14 -4.38478e-15 9.50548e-31
lhumerus -43.9018 -47.0917 102.689
lradius 59.8781 -0 0
lwrist 18.9719 0 0
lhand 18.1516 12.5228 0.0810802
lfingers 7.12502 -0 0
lthumb 42.8058 36.8098 0.0662151
rclavicle -6.6351e-14 -4.38478e-15 9.50548e-31
rhumerus -34.9531 38.4238 -76.0617
rradius 74.5012 -0 0
rwrist -4.05967 0 0
rhand -15.6076 -15.806 -0.478511
rfingers 7.12502 -0 0
rthumb 10.5932 -45.4383 -0.519019
307
root 9.16668 15.4147 -23.8109 14.4009 61.5468 18.7722
lfemur -15.39 17.4353 -18.4382
ltibia 51.8067 -0 0
lfoot -20.3424 -27.7024 -0.973601
ltoes 63.1006 -0 0
rfemur -52.3985 -14.5886 29.1761
rtibia 55.6172 -0 0
rfoot 2.58824 -0.751219 0.422796
rtoes 10.7726 -0 0
lowerback 9.40093 -2.83122 -7.38103
upperback 4.96342 -4.21979 -4.44013
thorax 0.14641 -2.11733 -0.171218
lowerneck -3.85062 -11.72 -2.18094
upperneck -2.23213 -15.5252 10.1078
head 1.04044 -7.73582 3.16914
lclavicle -6.1599e-14 -4.32561e-15 8.1198e-31
lhumerus -44.3853 -47.8367 103.062
lradius 59.7703 -0 0
lwrist 18.9087 0 0
lhand 17.8385 12.1587 0.080401
lfingers 7.12502 -0 0
lthumb 42.5131 36.5499 0.06635
rclavicle -6.1599e-14 -4.32561e-15 8.1198e-31
rhumerus -30.4935 37.467 -72.6701
rradius 73.9316 -0 0
rwrist -6.28374 0 0
rhand -14.2747 -16.1318 -0.479919
rfingers 7.12502 -0 0
rthumb 11.8802 -45.7106 -0.525671
308
root 9.11093 15.4424 -23.7905 13.6775 59.9143 17.5598
lfemur -15.5741 17.9851 -18.2785
ltibia 51.2611 -0 0
lfoot -20.7995 -26.8446 -0.983312
ltoes 63.3898 -0 0
rfemur -53.8287 -15.4795 29.4246
rtibia 56.4428 -0 0
rfoot 2.99215 1.11073 0.402372
rtoes 6.65246 -0 0
lowerback 9.60185 -2.63093 -7.26874
upperback 4.97055 -3.96695 -4.44565
thorax 0.0198696 -1.98787 -0.242307
lowerneck -3.99079 -11.6512 -1.73766
upperneck -2.79521 -15.4036 10.1987
head 0.841925 -7.68787 3.14348
lclavicle -5.68362e-14 -4.23408e-15 6.6602e-31
lhumerus -44.8815 -48.5431 103.458
lradius 59.6618 -0 0
lwrist 18.8484 0 0
lhand 17.5189 11.8047 0.0775535
lfingers 7.12502 -0 0
lthumb 42.2143 36.3011 0.0646953
rclavicle -5.68362e-14 -4.23408e-15 6.6602e-31
rhumerus -26.2635 36.2916 -69.507
rradius 73.3699 -0 0
rwrist -8.43219 0 0
rhand -12.9237 -16.4238 -0.469593
rfingers 7.12502 -0 0
rthumb 13.1837 -45.9414 -0.519201
309
root 9.05545 15.4704 -23.7666 13.0633 58.282 16.4516
lfemur -15.7477 18.5157 -18.1183
ltibia 50.7082 -0 0
lfoot -21.2013 -25.9234 -0.966266
ltoes 63.5055 -0 0
rfemur -55.2115 -16.3286 29.6376
rtibia 57.2537 -0 0
rfoot 3.38817 2.8729 0.368455
rtoes 2.66992 -0 0
lowerback 9.77845 -2.43837 -7.14895
upperback 4.97075 -3.72164 -4.44308
thorax -0.0998024 -1.86231 -0.309582
lowerneck -4.128 -11.5799 -1.30857
upperneck -3.33812 -15.2804 10.2776
head 0.649615 -7.63904 3.11597
lclavicle -5.21466e-14 -4.11058e-15 5.20417e-31
lhumerus -45.3838 -49.2 103.871
lradius 59.5541 -0 0
lwrist 18.7917 0 0
lhand 17.1946 11.4656 0.0725961
lfingers 7.12502 -0 0
lthumb 41.9109 36.0677 0.0612564
rclavicle -5.21466e-14 -4.11058e-15 5.20417e-31
rhumerus -22.3232 34.9457 -66.6203
rradius 72.8336 -0 0
rwrist -10.4761 0 0
rhand -11.563 -16.6787 -0.447453
rfingers 7.12502 -0 0
rthumb 14.4957 -46.1262 -0.49925
